<svg width="1440" height="803" viewBox="0 0 1440 803" fill="none" xmlns="http://www.w3.org/2000/svg">
<g opacity="0.7">
<path opacity="0.5" d="M350.948 -101.103C43.3241 -152.55 142.738 92.9455 123.67 157.511C88.9093 262.61 -1.01867 258.015 -205.267 384.788C-409.516 511.561 -217.624 677.906 203.991 751.052C625.606 824.197 491.768 827.942 763.653 1153.34C1035.54 1478.74 1408.61 1339.22 1390.02 1022.15C1371.43 705.082 1567.03 694.33 1519.66 395.174C1472.28 96.0178 1451.81 144.113 1026.23 138.243C600.653 132.373 658.571 -49.6558 350.948 -101.103Z" stroke="white" stroke-opacity="0.4"/>
<path opacity="0.1" d="M294.271 -2.10139C9.73534 -8.91349 131.198 200.045 122.297 260.831C104.446 360.257 22.6146 367.702 -145.554 508.562C-313.723 649.422 -118.923 774.953 271.388 786.669C661.699 798.385 541.276 819.025 828.848 1077.93C1116.42 1336.84 1435.46 1162.69 1377.78 878.651C1320.11 594.613 1495.42 559.679 1414.05 295.535C1332.68 31.3908 1320.38 77.4797 935.169 127.05C549.954 176.62 578.806 4.71072 294.271 -2.10139Z" stroke="white" stroke-opacity="0.4"/>
<path opacity="0.5" d="M318.976 62.4132C64.2188 61.8789 176.997 246.497 170.22 301.067C156.19 390.39 83.1057 398.652 -64.6313 527.991C-212.368 657.331 -35.5926 765.858 313.917 768.713C663.427 771.568 556.066 792.392 818.468 1018.46C1080.87 1244.53 1362.97 1082.45 1305.8 829.4C1248.64 576.347 1404.84 541.659 1326.86 306.873C1248.88 72.087 1238.78 113.571 895.027 165.46C551.275 217.35 573.734 62.9475 318.976 62.4132Z" stroke="white" stroke-opacity="0.4"/>
<path opacity="0.5" d="M393.966 170.051C196.963 167.494 282.623 311.211 276.923 353.354C265.321 422.312 208.735 428.085 93.3988 526.863C-21.9371 625.64 113.853 711.053 384.111 716.202C654.369 721.351 571.169 736.551 772.188 913.581C973.206 1090.61 1192.72 967.649 1150.64 771.478C1108.57 575.307 1229.65 549.797 1171.32 367.577C1113 185.356 1104.83 217.352 838.569 254.586C572.303 291.82 590.97 172.608 393.966 170.051Z" stroke="white" stroke-opacity="0.4"/>
<path opacity="0.5" d="M452.128 290.469C313.585 295.172 378.531 393.354 375.915 423.16C370.036 472.008 330.456 477.933 252.655 551.161C174.853 624.389 273.108 679.939 463.22 674.641C653.333 669.344 595.36 682.771 742.481 800.56C889.602 918.348 1039.82 824.685 1003.78 688.201C967.735 551.716 1051.99 529.792 1004.99 403.648C957.984 277.504 953.302 300.26 767.393 335.214C581.485 370.168 590.671 285.767 452.128 290.469Z" stroke="white" stroke-opacity="0.4"/>
</g>
</svg>
