<svg width="539" height="309" viewBox="0 0 539 309" fill="none" xmlns="http://www.w3.org/2000/svg">
<path d="M127.369 29.563C127.369 30.263 127.215 30.907 126.907 31.495C126.613 32.069 126.221 32.559 125.731 32.965C125.255 33.371 124.723 33.749 124.135 34.099C123.547 34.435 122.959 34.75 122.371 35.044C121.783 35.324 121.244 35.604 120.754 35.884C120.278 36.164 119.886 36.479 119.578 36.829C119.284 37.165 119.137 37.529 119.137 37.921H127.369V40H116.89V37.921C116.89 37.221 117.093 36.584 117.499 36.01C117.905 35.422 118.416 34.939 119.032 34.561C119.648 34.183 120.313 33.798 121.027 33.406C121.741 33 122.406 32.636 123.022 32.314C123.638 31.978 124.149 31.565 124.555 31.075C124.961 30.585 125.164 30.06 125.164 29.5C125.164 28.758 124.905 28.149 124.387 27.673C123.883 27.197 123.218 26.959 122.392 26.959C121.412 26.959 120.614 27.218 119.998 27.736C119.382 28.254 119.074 28.912 119.074 29.71H116.89C116.89 28.352 117.415 27.211 118.465 26.287C119.515 25.349 120.831 24.88 122.413 24.88C123.841 24.88 125.024 25.314 125.962 26.182C126.9 27.036 127.369 28.163 127.369 29.563ZM135.877 24.88C137.417 24.88 138.733 25.37 139.825 26.35C140.917 27.316 141.463 28.611 141.463 30.235V34.855C141.463 36.479 140.917 37.781 139.825 38.761C138.733 39.727 137.417 40.21 135.877 40.21C134.351 40.21 133.035 39.727 131.929 38.761C130.837 37.781 130.291 36.479 130.291 34.855V30.235C130.291 28.611 130.837 27.316 131.929 26.35C133.035 25.37 134.351 24.88 135.877 24.88ZM133.462 37.228C134.12 37.83 134.925 38.131 135.877 38.131C136.829 38.131 137.634 37.83 138.292 37.228C138.95 36.612 139.279 35.821 139.279 34.855V30.235C139.279 29.269 138.95 28.485 138.292 27.883C137.634 27.267 136.829 26.959 135.877 26.959C134.925 26.959 134.12 27.267 133.462 27.883C132.804 28.485 132.475 29.269 132.475 30.235V34.855C132.475 35.821 132.804 36.612 133.462 37.228ZM158.219 29.164C159.325 29.164 160.179 29.549 160.781 30.319C161.397 31.075 161.705 32.083 161.705 33.343V40H159.521V34.078C159.521 33.21 159.332 32.524 158.954 32.02C158.59 31.502 158.072 31.243 157.4 31.243C156.588 31.243 155.923 31.614 155.405 32.356C154.901 33.098 154.621 34.043 154.565 35.191V40H152.381V34.078C152.381 33.21 152.199 32.524 151.835 32.02C151.471 31.502 150.946 31.243 150.26 31.243C149.448 31.243 148.783 31.614 148.265 32.356C147.761 33.098 147.481 34.043 147.425 35.191V40H145.241V29.374H147.299L147.404 31.033C148.482 29.787 149.707 29.164 151.079 29.164C152.647 29.164 153.704 29.906 154.25 31.39C155.412 29.906 156.735 29.164 158.219 29.164ZM166.617 27.4C166.393 27.624 166.12 27.736 165.798 27.736C165.476 27.736 165.196 27.624 164.958 27.4C164.734 27.162 164.622 26.882 164.622 26.56C164.622 26.238 164.734 25.965 164.958 25.741C165.196 25.503 165.476 25.384 165.798 25.384C166.12 25.384 166.393 25.503 166.617 25.741C166.855 25.965 166.974 26.238 166.974 26.56C166.974 26.882 166.855 27.162 166.617 27.4ZM166.89 29.374V40H164.706V29.374H166.89ZM176.363 29.164C177.609 29.164 178.568 29.563 179.24 30.361C179.926 31.145 180.269 32.279 180.269 33.763V40H178.085V34.729C178.085 32.405 177.231 31.243 175.523 31.243C174.543 31.243 173.773 31.565 173.213 32.209C172.653 32.839 172.345 33.588 172.289 34.456V40H170.105V29.374H172.163L172.268 31.075C173.472 29.801 174.837 29.164 176.363 29.164ZM182.712 36.913H184.896C185.008 37.347 185.274 37.697 185.694 37.963C186.128 38.229 186.681 38.362 187.353 38.362C187.913 38.362 188.375 38.257 188.739 38.047C189.103 37.837 189.285 37.55 189.285 37.186C189.285 36.766 189.103 36.451 188.739 36.241C188.389 36.017 187.71 35.73 186.702 35.38C186.45 35.296 186.261 35.233 186.135 35.191C185.169 34.883 184.413 34.491 183.867 34.015C183.321 33.539 183.048 32.902 183.048 32.104C183.048 31.222 183.419 30.515 184.161 29.983C184.917 29.437 185.799 29.164 186.807 29.164C187.997 29.164 188.956 29.465 189.684 30.067C190.426 30.655 190.825 31.397 190.881 32.293H188.676C188.634 31.873 188.438 31.551 188.088 31.327C187.738 31.103 187.339 30.991 186.891 30.991C186.471 30.991 186.093 31.089 185.757 31.285C185.421 31.481 185.253 31.754 185.253 32.104C185.253 32.202 185.26 32.293 185.274 32.377C185.302 32.447 185.344 32.517 185.4 32.587C185.456 32.657 185.512 32.72 185.568 32.776C185.624 32.832 185.708 32.895 185.82 32.965C185.946 33.021 186.051 33.077 186.135 33.133C186.233 33.175 186.373 33.231 186.555 33.301C186.751 33.371 186.919 33.434 187.059 33.49C187.199 33.532 187.395 33.602 187.647 33.7C187.913 33.798 188.144 33.882 188.34 33.952C190.44 34.68 191.49 35.772 191.49 37.228C191.49 38.152 191.098 38.88 190.314 39.412C189.53 39.944 188.529 40.21 187.311 40.21C185.995 40.21 184.924 39.93 184.098 39.37C183.272 38.796 182.81 37.977 182.712 36.913Z" fill="white"/>
<path d="M136.084 70.09H138.331L133.606 85H131.002L127.39 73.639L123.799 85H121.195L116.47 70.09H118.717L122.497 82.123L126.277 70.09H128.524L132.304 82.123L136.084 70.09ZM148.961 79.813V80.359H140.519C140.547 81.199 140.855 81.892 141.443 82.438C142.045 82.984 142.843 83.257 143.837 83.257C144.551 83.257 145.153 83.096 145.643 82.774C146.147 82.452 146.525 82.06 146.777 81.598L148.688 81.808C148.478 82.662 147.939 83.446 147.071 84.16C146.217 84.86 145.132 85.21 143.816 85.21C142.22 85.21 140.904 84.678 139.868 83.614C138.846 82.55 138.335 81.22 138.335 79.624C138.335 78.112 138.832 76.824 139.826 75.76C140.82 74.696 142.094 74.164 143.648 74.164C145.23 74.164 146.511 74.717 147.491 75.823C148.471 76.915 148.961 78.245 148.961 79.813ZM143.648 76.117C142.766 76.117 142.031 76.383 141.443 76.915C140.869 77.433 140.561 78.07 140.519 78.826H146.756C146.714 78.084 146.406 77.447 145.832 76.915C145.272 76.383 144.544 76.117 143.648 76.117ZM161.589 75.781C162.611 76.845 163.122 78.147 163.122 79.687C163.122 81.227 162.611 82.536 161.589 83.614C160.581 84.678 159.321 85.21 157.809 85.21C156.885 85.21 156.052 84.986 155.31 84.538C154.582 84.076 154.064 83.495 153.756 82.795L153.651 85H151.572V69.25H153.756V76.558C154.078 75.858 154.603 75.284 155.331 74.836C156.059 74.388 156.885 74.164 157.809 74.164C159.321 74.164 160.581 74.703 161.589 75.781ZM159.93 82.123C160.602 81.451 160.938 80.639 160.938 79.687C160.938 78.735 160.602 77.923 159.93 77.251C159.272 76.579 158.446 76.243 157.452 76.243C156.472 76.243 155.646 76.579 154.974 77.251C154.316 77.923 153.987 78.735 153.987 79.687C153.987 80.639 154.316 81.451 154.974 82.123C155.646 82.795 156.472 83.131 157.452 83.131C158.446 83.131 159.272 82.795 159.93 82.123ZM181.609 77.44C180.797 76.642 179.838 76.243 178.732 76.243C177.794 76.243 176.975 76.572 176.275 77.23C175.575 77.888 175.225 78.707 175.225 79.687C175.225 80.667 175.575 81.486 176.275 82.144C176.975 82.802 177.794 83.131 178.732 83.131C179.824 83.131 180.783 82.725 181.609 81.913V84.034C180.783 84.818 179.712 85.21 178.396 85.21C176.842 85.21 175.54 84.671 174.49 83.593C173.44 82.501 172.915 81.199 172.915 79.687C172.915 78.175 173.44 76.88 174.49 75.802C175.554 74.71 176.856 74.164 178.396 74.164C179.712 74.164 180.783 74.556 181.609 75.34V77.44ZM189.531 85.21C187.907 85.21 186.549 84.678 185.457 83.614C184.379 82.536 183.84 81.227 183.84 79.687C183.84 78.147 184.379 76.845 185.457 75.781C186.549 74.703 187.907 74.164 189.531 74.164C191.141 74.164 192.478 74.703 193.542 75.781C194.62 76.845 195.159 78.147 195.159 79.687C195.159 81.227 194.62 82.536 193.542 83.614C192.478 84.678 191.141 85.21 189.531 85.21ZM189.531 83.131C190.511 83.131 191.33 82.795 191.988 82.123C192.646 81.451 192.975 80.639 192.975 79.687C192.975 78.735 192.646 77.923 191.988 77.251C191.33 76.579 190.511 76.243 189.531 76.243C188.537 76.243 187.704 76.579 187.032 77.251C186.36 77.923 186.024 78.735 186.024 79.687C186.024 80.639 186.36 81.451 187.032 82.123C187.704 82.795 188.537 83.131 189.531 83.131ZM203.955 74.164C205.201 74.164 206.16 74.563 206.832 75.361C207.518 76.145 207.861 77.279 207.861 78.763V85H205.677V79.729C205.677 77.405 204.823 76.243 203.115 76.243C202.135 76.243 201.365 76.565 200.805 77.209C200.245 77.839 199.937 78.588 199.881 79.456V85H197.697V74.374H199.755L199.86 76.075C201.064 74.801 202.429 74.164 203.955 74.164ZM214.933 71.959C214.401 71.959 214.023 72.113 213.799 72.421C213.589 72.715 213.484 73.149 213.484 73.723V74.374H216.109V76.453H213.484V85H211.279V76.453H210.187V74.374H211.279V73.408C211.279 72.176 211.559 71.28 212.119 70.72C212.693 70.16 213.393 69.88 214.219 69.88C214.989 69.88 215.647 70.083 216.193 70.489V72.337C215.787 72.085 215.367 71.959 214.933 71.959ZM228.43 79.813V80.359H219.988C220.016 81.199 220.324 81.892 220.912 82.438C221.514 82.984 222.312 83.257 223.306 83.257C224.02 83.257 224.622 83.096 225.112 82.774C225.616 82.452 225.994 82.06 226.246 81.598L228.157 81.808C227.947 82.662 227.408 83.446 226.54 84.16C225.686 84.86 224.601 85.21 223.285 85.21C221.689 85.21 220.373 84.678 219.337 83.614C218.315 82.55 217.804 81.22 217.804 79.624C217.804 78.112 218.301 76.824 219.295 75.76C220.289 74.696 221.563 74.164 223.117 74.164C224.699 74.164 225.98 74.717 226.96 75.823C227.94 76.915 228.43 78.245 228.43 79.813ZM223.117 76.117C222.235 76.117 221.5 76.383 220.912 76.915C220.338 77.433 220.03 78.07 219.988 78.826H226.225C226.183 78.084 225.875 77.447 225.301 76.915C224.741 76.383 224.013 76.117 223.117 76.117ZM235.521 74.164C236.053 74.164 236.487 74.318 236.823 74.626L236.487 76.537C236.165 76.341 235.801 76.243 235.395 76.243C234.667 76.243 234.107 76.593 233.715 77.293C233.337 77.979 233.148 78.875 233.148 79.981V85H230.964V74.374H233.022L233.127 75.613C233.883 74.647 234.681 74.164 235.521 74.164ZM248.66 79.813V80.359H240.218C240.246 81.199 240.554 81.892 241.142 82.438C241.744 82.984 242.542 83.257 243.536 83.257C244.25 83.257 244.852 83.096 245.342 82.774C245.846 82.452 246.224 82.06 246.476 81.598L248.387 81.808C248.177 82.662 247.638 83.446 246.77 84.16C245.916 84.86 244.831 85.21 243.515 85.21C241.919 85.21 240.603 84.678 239.567 83.614C238.545 82.55 238.034 81.22 238.034 79.624C238.034 78.112 238.531 76.824 239.525 75.76C240.519 74.696 241.793 74.164 243.347 74.164C244.929 74.164 246.21 74.717 247.19 75.823C248.17 76.915 248.66 78.245 248.66 79.813ZM243.347 76.117C242.465 76.117 241.73 76.383 241.142 76.915C240.568 77.433 240.26 78.07 240.218 78.826H246.455C246.413 78.084 246.105 77.447 245.531 76.915C244.971 76.383 244.243 76.117 243.347 76.117ZM257.452 74.164C258.698 74.164 259.657 74.563 260.329 75.361C261.015 76.145 261.358 77.279 261.358 78.763V85H259.174V79.729C259.174 77.405 258.32 76.243 256.612 76.243C255.632 76.243 254.862 76.565 254.302 77.209C253.742 77.839 253.434 78.588 253.378 79.456V85H251.194V74.374H253.252L253.357 76.075C254.561 74.801 255.926 74.164 257.452 74.164ZM272.392 77.44C271.58 76.642 270.621 76.243 269.515 76.243C268.577 76.243 267.758 76.572 267.058 77.23C266.358 77.888 266.008 78.707 266.008 79.687C266.008 80.667 266.358 81.486 267.058 82.144C267.758 82.802 268.577 83.131 269.515 83.131C270.607 83.131 271.566 82.725 272.392 81.913V84.034C271.566 84.818 270.495 85.21 269.179 85.21C267.625 85.21 266.323 84.671 265.273 83.593C264.223 82.501 263.698 81.199 263.698 79.687C263.698 78.175 264.223 76.88 265.273 75.802C266.337 74.71 267.639 74.164 269.179 74.164C270.495 74.164 271.566 74.556 272.392 75.34V77.44ZM276.953 72.4C276.729 72.624 276.456 72.736 276.134 72.736C275.812 72.736 275.532 72.624 275.294 72.4C275.07 72.162 274.958 71.882 274.958 71.56C274.958 71.238 275.07 70.965 275.294 70.741C275.532 70.503 275.812 70.384 276.134 70.384C276.456 70.384 276.729 70.503 276.953 70.741C277.191 70.965 277.31 71.238 277.31 71.56C277.31 71.882 277.191 72.162 276.953 72.4ZM277.226 74.374V85H275.042V74.374H277.226ZM286.699 74.164C287.945 74.164 288.904 74.563 289.576 75.361C290.262 76.145 290.605 77.279 290.605 78.763V85H288.421V79.729C288.421 77.405 287.567 76.243 285.859 76.243C284.879 76.243 284.109 76.565 283.549 77.209C282.989 77.839 282.681 78.588 282.625 79.456V85H280.441V74.374H282.499L282.604 76.075C283.808 74.801 285.173 74.164 286.699 74.164ZM302.805 74.374V76.327L301.713 76.18C302.077 76.796 302.259 77.454 302.259 78.154C302.259 79.302 301.832 80.254 300.978 81.01C300.124 81.766 299.067 82.144 297.807 82.144C297.275 82.144 296.764 82.067 296.274 81.913C295.98 82.067 295.833 82.263 295.833 82.501C295.833 82.935 296.47 83.152 297.744 83.152C299.34 83.152 300.579 83.467 301.461 84.097C302.343 84.727 302.784 85.56 302.784 86.596C302.784 87.66 302.322 88.5 301.398 89.116C300.488 89.732 299.382 90.04 298.08 90.04C296.778 90.04 295.665 89.732 294.741 89.116C293.831 88.5 293.376 87.66 293.376 86.596C293.376 85.616 293.817 84.846 294.699 84.286C294.069 83.894 293.754 83.425 293.754 82.879C293.754 82.207 294.167 81.675 294.993 81.283C293.915 80.499 293.376 79.456 293.376 78.154C293.376 76.992 293.796 76.04 294.636 75.298C295.49 74.542 296.547 74.164 297.807 74.164C298.591 74.164 299.312 74.318 299.97 74.626L302.805 74.374ZM297.807 80.296C298.465 80.296 299.025 80.093 299.487 79.687C299.949 79.281 300.18 78.77 300.18 78.154C300.18 77.538 299.949 77.027 299.487 76.621C299.025 76.201 298.465 75.991 297.807 75.991C297.163 75.991 296.61 76.201 296.148 76.621C295.686 77.027 295.455 77.538 295.455 78.154C295.455 78.77 295.686 79.281 296.148 79.687C296.61 80.093 297.163 80.296 297.807 80.296ZM300.705 86.638C300.705 85.532 299.508 84.979 297.114 84.979C296.932 84.979 296.792 84.972 296.694 84.958C296.372 85.112 296.085 85.329 295.833 85.609C295.581 85.903 295.455 86.218 295.455 86.554C295.455 87.072 295.693 87.478 296.169 87.772C296.645 88.066 297.282 88.213 298.08 88.213C298.892 88.213 299.529 88.08 299.991 87.814C300.467 87.548 300.705 87.156 300.705 86.638ZM314.113 83.614C313.091 82.536 312.58 81.227 312.58 79.687C312.58 78.147 313.091 76.845 314.113 75.781C315.135 74.703 316.402 74.164 317.914 74.164C318.838 74.164 319.657 74.388 320.371 74.836C321.099 75.284 321.624 75.858 321.946 76.558V69.25H324.151V85H322.072L321.946 82.795C321.624 83.495 321.099 84.076 320.371 84.538C319.657 84.986 318.838 85.21 317.914 85.21C316.402 85.21 315.135 84.678 314.113 83.614ZM315.772 77.251C315.1 77.923 314.764 78.735 314.764 79.687C314.764 80.639 315.1 81.451 315.772 82.123C316.444 82.795 317.277 83.131 318.271 83.131C319.251 83.131 320.07 82.795 320.728 82.123C321.386 81.451 321.715 80.639 321.715 79.687C321.715 78.735 321.386 77.923 320.728 77.251C320.07 76.579 319.251 76.243 318.271 76.243C317.277 76.243 316.444 76.579 315.772 77.251ZM337.618 79.813V80.359H329.176C329.204 81.199 329.512 81.892 330.1 82.438C330.702 82.984 331.5 83.257 332.494 83.257C333.208 83.257 333.81 83.096 334.3 82.774C334.804 82.452 335.182 82.06 335.434 81.598L337.345 81.808C337.135 82.662 336.596 83.446 335.728 84.16C334.874 84.86 333.789 85.21 332.473 85.21C330.877 85.21 329.561 84.678 328.525 83.614C327.503 82.55 326.992 81.22 326.992 79.624C326.992 78.112 327.489 76.824 328.483 75.76C329.477 74.696 330.751 74.164 332.305 74.164C333.887 74.164 335.168 74.717 336.148 75.823C337.128 76.915 337.618 78.245 337.618 79.813ZM332.305 76.117C331.423 76.117 330.688 76.383 330.1 76.915C329.526 77.433 329.218 78.07 329.176 78.826H335.413C335.371 78.084 335.063 77.447 334.489 76.915C333.929 76.383 333.201 76.117 332.305 76.117ZM345.57 74.374V76.453H343.302V85H341.097V76.453H339.522V74.374H341.097V71.224H343.302V74.374H345.57ZM348.713 83.614C347.691 82.536 347.18 81.227 347.18 79.687C347.18 78.147 347.691 76.845 348.713 75.781C349.735 74.703 351.002 74.164 352.514 74.164C353.438 74.164 354.257 74.388 354.971 74.836C355.699 75.284 356.224 75.858 356.546 76.558L356.672 74.374H358.751V85H356.672L356.546 82.795C356.224 83.495 355.699 84.076 354.971 84.538C354.257 84.986 353.438 85.21 352.514 85.21C351.002 85.21 349.735 84.678 348.713 83.614ZM350.372 77.251C349.7 77.923 349.364 78.735 349.364 79.687C349.364 80.639 349.7 81.451 350.372 82.123C351.044 82.795 351.877 83.131 352.871 83.131C353.851 83.131 354.67 82.795 355.328 82.123C355.986 81.451 356.315 80.639 356.315 79.687C356.315 78.735 355.986 77.923 355.328 77.251C354.67 76.579 353.851 76.243 352.871 76.243C351.877 76.243 351.044 76.579 350.372 77.251ZM363.368 72.4C363.144 72.624 362.871 72.736 362.549 72.736C362.227 72.736 361.947 72.624 361.709 72.4C361.485 72.162 361.373 71.882 361.373 71.56C361.373 71.238 361.485 70.965 361.709 70.741C361.947 70.503 362.227 70.384 362.549 70.384C362.871 70.384 363.144 70.503 363.368 70.741C363.606 70.965 363.725 71.238 363.725 71.56C363.725 71.882 363.606 72.162 363.368 72.4ZM363.641 74.374V85H361.457V74.374H363.641ZM368.958 69.25V85H366.774V69.25H368.958ZM371.28 81.913H373.464C373.576 82.347 373.842 82.697 374.262 82.963C374.696 83.229 375.249 83.362 375.921 83.362C376.481 83.362 376.943 83.257 377.307 83.047C377.671 82.837 377.853 82.55 377.853 82.186C377.853 81.766 377.671 81.451 377.307 81.241C376.957 81.017 376.278 80.73 375.27 80.38C375.018 80.296 374.829 80.233 374.703 80.191C373.737 79.883 372.981 79.491 372.435 79.015C371.889 78.539 371.616 77.902 371.616 77.104C371.616 76.222 371.987 75.515 372.729 74.983C373.485 74.437 374.367 74.164 375.375 74.164C376.565 74.164 377.524 74.465 378.252 75.067C378.994 75.655 379.393 76.397 379.449 77.293H377.244C377.202 76.873 377.006 76.551 376.656 76.327C376.306 76.103 375.907 75.991 375.459 75.991C375.039 75.991 374.661 76.089 374.325 76.285C373.989 76.481 373.821 76.754 373.821 77.104C373.821 77.202 373.828 77.293 373.842 77.377C373.87 77.447 373.912 77.517 373.968 77.587C374.024 77.657 374.08 77.72 374.136 77.776C374.192 77.832 374.276 77.895 374.388 77.965C374.514 78.021 374.619 78.077 374.703 78.133C374.801 78.175 374.941 78.231 375.123 78.301C375.319 78.371 375.487 78.434 375.627 78.49C375.767 78.532 375.963 78.602 376.215 78.7C376.481 78.798 376.712 78.882 376.908 78.952C379.008 79.68 380.058 80.772 380.058 82.228C380.058 83.152 379.666 83.88 378.882 84.412C378.098 84.944 377.097 85.21 375.879 85.21C374.563 85.21 373.492 84.93 372.666 84.37C371.84 83.796 371.378 82.977 371.28 81.913ZM389.849 89.83V74.374H391.907L392.033 76.558C392.355 75.858 392.88 75.284 393.608 74.836C394.336 74.388 395.162 74.164 396.086 74.164C397.598 74.164 398.865 74.703 399.887 75.781C400.909 76.845 401.42 78.147 401.42 79.687C401.42 81.227 400.909 82.536 399.887 83.614C398.865 84.678 397.598 85.21 396.086 85.21C395.162 85.21 394.336 84.986 393.608 84.538C392.88 84.09 392.355 83.509 392.033 82.795V89.83H389.849ZM393.272 77.251C392.614 77.923 392.285 78.735 392.285 79.687C392.285 80.639 392.614 81.451 393.272 82.123C393.93 82.795 394.749 83.131 395.729 83.131C396.723 83.131 397.549 82.795 398.207 82.123C398.879 81.451 399.215 80.639 399.215 79.687C399.215 78.735 398.879 77.923 398.207 77.251C397.549 76.579 396.723 76.243 395.729 76.243C394.749 76.243 393.93 76.579 393.272 77.251ZM408.51 74.164C409.042 74.164 409.476 74.318 409.812 74.626L409.476 76.537C409.154 76.341 408.79 76.243 408.384 76.243C407.656 76.243 407.096 76.593 406.704 77.293C406.326 77.979 406.137 78.875 406.137 79.981V85H403.953V74.374H406.011L406.116 75.613C406.872 74.647 407.67 74.164 408.51 74.164ZM416.713 85.21C415.089 85.21 413.731 84.678 412.639 83.614C411.561 82.536 411.022 81.227 411.022 79.687C411.022 78.147 411.561 76.845 412.639 75.781C413.731 74.703 415.089 74.164 416.713 74.164C418.323 74.164 419.66 74.703 420.724 75.781C421.802 76.845 422.341 78.147 422.341 79.687C422.341 81.227 421.802 82.536 420.724 83.614C419.66 84.678 418.323 85.21 416.713 85.21ZM416.713 83.131C417.693 83.131 418.512 82.795 419.17 82.123C419.828 81.451 420.157 80.639 420.157 79.687C420.157 78.735 419.828 77.923 419.17 77.251C418.512 76.579 417.693 76.243 416.713 76.243C415.719 76.243 414.886 76.579 414.214 77.251C413.542 77.923 413.206 78.735 413.206 79.687C413.206 80.639 413.542 81.451 414.214 82.123C414.886 82.795 415.719 83.131 416.713 83.131ZM432.471 74.374H434.907L430.413 85H427.872L423.378 74.374H425.835L429.153 82.711L432.471 74.374ZM438.996 72.4C438.772 72.624 438.499 72.736 438.177 72.736C437.855 72.736 437.575 72.624 437.337 72.4C437.113 72.162 437.001 71.882 437.001 71.56C437.001 71.238 437.113 70.965 437.337 70.741C437.575 70.503 437.855 70.384 438.177 70.384C438.499 70.384 438.772 70.503 438.996 70.741C439.234 70.965 439.353 71.238 439.353 71.56C439.353 71.882 439.234 72.162 438.996 72.4ZM439.269 74.374V85H437.085V74.374H439.269ZM443.587 83.614C442.565 82.536 442.054 81.227 442.054 79.687C442.054 78.147 442.565 76.845 443.587 75.781C444.609 74.703 445.876 74.164 447.388 74.164C448.312 74.164 449.131 74.388 449.845 74.836C450.573 75.284 451.098 75.858 451.42 76.558V69.25H453.625V85H451.546L451.42 82.795C451.098 83.495 450.573 84.076 449.845 84.538C449.131 84.986 448.312 85.21 447.388 85.21C445.876 85.21 444.609 84.678 443.587 83.614ZM445.246 77.251C444.574 77.923 444.238 78.735 444.238 79.687C444.238 80.639 444.574 81.451 445.246 82.123C445.918 82.795 446.751 83.131 447.745 83.131C448.725 83.131 449.544 82.795 450.202 82.123C450.86 81.451 451.189 80.639 451.189 79.687C451.189 78.735 450.86 77.923 450.202 77.251C449.544 76.579 448.725 76.243 447.745 76.243C446.751 76.243 445.918 76.579 445.246 77.251ZM467.091 79.813V80.359H458.649C458.677 81.199 458.985 81.892 459.573 82.438C460.175 82.984 460.973 83.257 461.967 83.257C462.681 83.257 463.283 83.096 463.773 82.774C464.277 82.452 464.655 82.06 464.907 81.598L466.818 81.808C466.608 82.662 466.069 83.446 465.201 84.16C464.347 84.86 463.262 85.21 461.946 85.21C460.35 85.21 459.034 84.678 457.998 83.614C456.976 82.55 456.465 81.22 456.465 79.624C456.465 78.112 456.962 76.824 457.956 75.76C458.95 74.696 460.224 74.164 461.778 74.164C463.36 74.164 464.641 74.717 465.621 75.823C466.601 76.915 467.091 78.245 467.091 79.813ZM461.778 76.117C460.896 76.117 460.161 76.383 459.573 76.915C458.999 77.433 458.691 78.07 458.649 78.826H464.886C464.844 78.084 464.536 77.447 463.962 76.915C463.402 76.383 462.674 76.117 461.778 76.117ZM470.851 83.614C469.829 82.536 469.318 81.227 469.318 79.687C469.318 78.147 469.829 76.845 470.851 75.781C471.873 74.703 473.14 74.164 474.652 74.164C475.576 74.164 476.395 74.388 477.109 74.836C477.837 75.284 478.362 75.858 478.684 76.558V69.25H480.889V85H478.81L478.684 82.795C478.362 83.495 477.837 84.076 477.109 84.538C476.395 84.986 475.576 85.21 474.652 85.21C473.14 85.21 471.873 84.678 470.851 83.614ZM472.51 77.251C471.838 77.923 471.502 78.735 471.502 79.687C471.502 80.639 471.838 81.451 472.51 82.123C473.182 82.795 474.015 83.131 475.009 83.131C475.989 83.131 476.808 82.795 477.466 82.123C478.124 81.451 478.453 80.639 478.453 79.687C478.453 78.735 478.124 77.923 477.466 77.251C476.808 76.579 475.989 76.243 475.009 76.243C474.015 76.243 473.182 76.579 472.51 77.251ZM124.786 104.374H126.97V115H124.912L124.807 113.299C123.603 114.573 122.238 115.21 120.712 115.21C119.466 115.21 118.5 114.818 117.814 114.034C117.142 113.236 116.806 112.095 116.806 110.611V104.374H118.99V109.645C118.99 111.969 119.844 113.131 121.552 113.131C122.574 113.131 123.365 112.781 123.925 112.081C124.499 111.381 124.786 110.576 124.786 109.666V104.374ZM130.009 119.83V104.374H132.067L132.193 106.558C132.515 105.858 133.04 105.284 133.768 104.836C134.496 104.388 135.322 104.164 136.246 104.164C137.758 104.164 139.025 104.703 140.047 105.781C141.069 106.845 141.58 108.147 141.58 109.687C141.58 111.227 141.069 112.536 140.047 113.614C139.025 114.678 137.758 115.21 136.246 115.21C135.322 115.21 134.496 114.986 133.768 114.538C133.04 114.09 132.515 113.509 132.193 112.795V119.83H130.009ZM133.432 107.251C132.774 107.923 132.445 108.735 132.445 109.687C132.445 110.639 132.774 111.451 133.432 112.123C134.09 112.795 134.909 113.131 135.889 113.131C136.883 113.131 137.709 112.795 138.367 112.123C139.039 111.451 139.375 110.639 139.375 109.687C139.375 108.735 139.039 107.923 138.367 107.251C137.709 106.579 136.883 106.243 135.889 106.243C134.909 106.243 134.09 106.579 133.432 107.251ZM149.291 115.21C147.667 115.21 146.309 114.678 145.217 113.614C144.139 112.536 143.6 111.227 143.6 109.687C143.6 108.147 144.139 106.845 145.217 105.781C146.309 104.703 147.667 104.164 149.291 104.164C150.901 104.164 152.238 104.703 153.302 105.781C154.38 106.845 154.919 108.147 154.919 109.687C154.919 111.227 154.38 112.536 153.302 113.614C152.238 114.678 150.901 115.21 149.291 115.21ZM149.291 113.131C150.271 113.131 151.09 112.795 151.748 112.123C152.406 111.451 152.735 110.639 152.735 109.687C152.735 108.735 152.406 107.923 151.748 107.251C151.09 106.579 150.271 106.243 149.291 106.243C148.297 106.243 147.464 106.579 146.792 107.251C146.12 107.923 145.784 108.735 145.784 109.687C145.784 110.639 146.12 111.451 146.792 112.123C147.464 112.795 148.297 113.131 149.291 113.131ZM163.716 104.164C164.962 104.164 165.921 104.563 166.593 105.361C167.279 106.145 167.622 107.279 167.622 108.763V115H165.438V109.729C165.438 107.405 164.584 106.243 162.876 106.243C161.896 106.243 161.126 106.565 160.566 107.209C160.006 107.839 159.698 108.588 159.642 109.456V115H157.458V104.374H159.516L159.621 106.075C160.825 104.801 162.19 104.164 163.716 104.164ZM186.012 107.44C185.2 106.642 184.241 106.243 183.135 106.243C182.197 106.243 181.378 106.572 180.678 107.23C179.978 107.888 179.628 108.707 179.628 109.687C179.628 110.667 179.978 111.486 180.678 112.144C181.378 112.802 182.197 113.131 183.135 113.131C184.227 113.131 185.186 112.725 186.012 111.913V114.034C185.186 114.818 184.115 115.21 182.799 115.21C181.245 115.21 179.943 114.671 178.893 113.593C177.843 112.501 177.318 111.199 177.318 109.687C177.318 108.175 177.843 106.88 178.893 105.802C179.957 104.71 181.259 104.164 182.799 104.164C184.115 104.164 185.186 104.556 186.012 105.34V107.44ZM193.934 115.21C192.31 115.21 190.952 114.678 189.86 113.614C188.782 112.536 188.243 111.227 188.243 109.687C188.243 108.147 188.782 106.845 189.86 105.781C190.952 104.703 192.31 104.164 193.934 104.164C195.544 104.164 196.881 104.703 197.945 105.781C199.023 106.845 199.562 108.147 199.562 109.687C199.562 111.227 199.023 112.536 197.945 113.614C196.881 114.678 195.544 115.21 193.934 115.21ZM193.934 113.131C194.914 113.131 195.733 112.795 196.391 112.123C197.049 111.451 197.378 110.639 197.378 109.687C197.378 108.735 197.049 107.923 196.391 107.251C195.733 106.579 194.914 106.243 193.934 106.243C192.94 106.243 192.107 106.579 191.435 107.251C190.763 107.923 190.427 108.735 190.427 109.687C190.427 110.639 190.763 111.451 191.435 112.123C192.107 112.795 192.94 113.131 193.934 113.131ZM208.359 104.164C209.605 104.164 210.564 104.563 211.236 105.361C211.922 106.145 212.265 107.279 212.265 108.763V115H210.081V109.729C210.081 107.405 209.227 106.243 207.519 106.243C206.539 106.243 205.769 106.565 205.209 107.209C204.649 107.839 204.341 108.588 204.285 109.456V115H202.101V104.374H204.159L204.264 106.075C205.468 104.801 206.833 104.164 208.359 104.164ZM219.336 101.959C218.804 101.959 218.426 102.113 218.202 102.421C217.992 102.715 217.887 103.149 217.887 103.723V104.374H220.512V106.453H217.887V115H215.682V106.453H214.59V104.374H215.682V103.408C215.682 102.176 215.962 101.28 216.522 100.72C217.096 100.16 217.796 99.88 218.622 99.88C219.392 99.88 220.05 100.083 220.596 100.489V102.337C220.19 102.085 219.77 101.959 219.336 101.959ZM224.825 102.4C224.601 102.624 224.328 102.736 224.006 102.736C223.684 102.736 223.404 102.624 223.166 102.4C222.942 102.162 222.83 101.882 222.83 101.56C222.83 101.238 222.942 100.965 223.166 100.741C223.404 100.503 223.684 100.384 224.006 100.384C224.328 100.384 224.601 100.503 224.825 100.741C225.063 100.965 225.182 101.238 225.182 101.56C225.182 101.882 225.063 102.162 224.825 102.4ZM225.098 104.374V115H222.914V104.374H225.098ZM232.87 104.164C233.402 104.164 233.836 104.318 234.172 104.626L233.836 106.537C233.514 106.341 233.15 106.243 232.744 106.243C232.016 106.243 231.456 106.593 231.064 107.293C230.686 107.979 230.497 108.875 230.497 109.981V115H228.313V104.374H230.371L230.476 105.613C231.232 104.647 232.03 104.164 232.87 104.164ZM249.406 104.164C250.512 104.164 251.366 104.549 251.968 105.319C252.584 106.075 252.892 107.083 252.892 108.343V115H250.708V109.078C250.708 108.21 250.519 107.524 250.141 107.02C249.777 106.502 249.259 106.243 248.587 106.243C247.775 106.243 247.11 106.614 246.592 107.356C246.088 108.098 245.808 109.043 245.752 110.191V115H243.568V109.078C243.568 108.21 243.386 107.524 243.022 107.02C242.658 106.502 242.133 106.243 241.447 106.243C240.635 106.243 239.97 106.614 239.452 107.356C238.948 108.098 238.668 109.043 238.612 110.191V115H236.428V104.374H238.486L238.591 106.033C239.669 104.787 240.894 104.164 242.266 104.164C243.834 104.164 244.891 104.906 245.437 106.39C246.599 104.906 247.922 104.164 249.406 104.164ZM256.864 113.614C255.842 112.536 255.331 111.227 255.331 109.687C255.331 108.147 255.842 106.845 256.864 105.781C257.886 104.703 259.153 104.164 260.665 104.164C261.589 104.164 262.408 104.388 263.122 104.836C263.85 105.284 264.375 105.858 264.697 106.558L264.823 104.374H266.902V115H264.823L264.697 112.795C264.375 113.495 263.85 114.076 263.122 114.538C262.408 114.986 261.589 115.21 260.665 115.21C259.153 115.21 257.886 114.678 256.864 113.614ZM258.523 107.251C257.851 107.923 257.515 108.735 257.515 109.687C257.515 110.639 257.851 111.451 258.523 112.123C259.195 112.795 260.028 113.131 261.022 113.131C262.002 113.131 262.821 112.795 263.479 112.123C264.137 111.451 264.466 110.639 264.466 109.687C264.466 108.735 264.137 107.923 263.479 107.251C262.821 106.579 262.002 106.243 261.022 106.243C260.028 106.243 259.195 106.579 258.523 107.251ZM275.488 104.374V106.453H273.22V115H271.015V106.453H269.44V104.374H271.015V101.224H273.22V104.374H275.488ZM279.716 102.4C279.492 102.624 279.219 102.736 278.897 102.736C278.575 102.736 278.295 102.624 278.057 102.4C277.833 102.162 277.721 101.882 277.721 101.56C277.721 101.238 277.833 100.965 278.057 100.741C278.295 100.503 278.575 100.384 278.897 100.384C279.219 100.384 279.492 100.503 279.716 100.741C279.954 100.965 280.073 101.238 280.073 101.56C280.073 101.882 279.954 102.162 279.716 102.4ZM279.989 104.374V115H277.805V104.374H279.989ZM288.465 115.21C286.841 115.21 285.483 114.678 284.391 113.614C283.313 112.536 282.774 111.227 282.774 109.687C282.774 108.147 283.313 106.845 284.391 105.781C285.483 104.703 286.841 104.164 288.465 104.164C290.075 104.164 291.412 104.703 292.476 105.781C293.554 106.845 294.093 108.147 294.093 109.687C294.093 111.227 293.554 112.536 292.476 113.614C291.412 114.678 290.075 115.21 288.465 115.21ZM288.465 113.131C289.445 113.131 290.264 112.795 290.922 112.123C291.58 111.451 291.909 110.639 291.909 109.687C291.909 108.735 291.58 107.923 290.922 107.251C290.264 106.579 289.445 106.243 288.465 106.243C287.471 106.243 286.638 106.579 285.966 107.251C285.294 107.923 284.958 108.735 284.958 109.687C284.958 110.639 285.294 111.451 285.966 112.123C286.638 112.795 287.471 113.131 288.465 113.131ZM302.889 104.164C304.135 104.164 305.094 104.563 305.766 105.361C306.452 106.145 306.795 107.279 306.795 108.763V115H304.611V109.729C304.611 107.405 303.757 106.243 302.049 106.243C301.069 106.243 300.299 106.565 299.739 107.209C299.179 107.839 298.871 108.588 298.815 109.456V115H296.631V104.374H298.689L298.794 106.075C299.998 104.801 301.363 104.164 302.889 104.164ZM310.937 114.874C310.713 115.098 310.44 115.21 310.118 115.21C309.796 115.21 309.516 115.098 309.278 114.874C309.054 114.636 308.942 114.356 308.942 114.034C308.942 113.712 309.054 113.439 309.278 113.215C309.516 112.977 309.796 112.858 310.118 112.858C310.44 112.858 310.713 112.977 310.937 113.215C311.175 113.439 311.294 113.712 311.294 114.034C311.294 114.356 311.175 114.636 310.937 114.874Z" fill="white"/>
<path d="M137.126 173.09H138.974L134.207 188H132.065L128.222 175.967L124.379 188H122.237L117.47 173.09H119.318L123.308 185.627L127.298 173.09H129.146L133.136 185.627L137.126 173.09ZM148.499 177.164C149.745 177.164 150.711 177.563 151.397 178.361C152.097 179.159 152.447 180.3 152.447 181.784V188H150.641V182.54C150.641 180.09 149.717 178.865 147.869 178.865C147.085 178.865 146.413 179.075 145.853 179.495C145.293 179.915 144.901 180.398 144.677 180.944C144.453 181.476 144.341 182.022 144.341 182.582V188H142.535V172.25H144.341V179.222C145.489 177.85 146.875 177.164 148.499 177.164ZM154.895 182.666C154.895 181.14 155.413 179.845 156.449 178.781C157.485 177.703 158.759 177.164 160.271 177.164C161.237 177.164 162.105 177.409 162.875 177.899C163.645 178.389 164.205 179.019 164.555 179.789L164.639 177.374H166.361V188H164.639L164.555 185.585C164.205 186.355 163.645 186.985 162.875 187.475C162.105 187.965 161.237 188.21 160.271 188.21C158.759 188.21 157.485 187.671 156.449 186.593C155.413 185.515 154.895 184.206 154.895 182.666ZM156.701 182.666C156.701 183.73 157.072 184.64 157.814 185.396C158.556 186.138 159.466 186.509 160.544 186.509C161.622 186.509 162.525 186.138 163.253 185.396C163.995 184.64 164.366 183.73 164.366 182.666C164.366 181.63 163.995 180.741 163.253 179.999C162.525 179.243 161.622 178.865 160.544 178.865C159.466 178.865 158.556 179.243 157.814 179.999C157.072 180.741 156.701 181.63 156.701 182.666ZM174.568 177.374V179.075H172.363V188H170.578V179.075H169.066V177.374H170.578V174.224H172.363V177.374H174.568ZM188.974 177.374V179.075H186.769V188H184.984V179.075H183.472V177.374H184.984V174.224H186.769V177.374H188.974ZM197.545 177.164C198.791 177.164 199.757 177.563 200.443 178.361C201.143 179.159 201.493 180.3 201.493 181.784V188H199.687V182.54C199.687 180.09 198.763 178.865 196.915 178.865C196.131 178.865 195.459 179.075 194.899 179.495C194.339 179.915 193.947 180.398 193.723 180.944C193.499 181.476 193.387 182.022 193.387 182.582V188H191.581V172.25H193.387V179.222C194.535 177.85 195.921 177.164 197.545 177.164ZM214.568 182.792V183.254H205.748C205.776 184.234 206.126 185.039 206.798 185.669C207.47 186.285 208.345 186.593 209.423 186.593C210.235 186.593 210.914 186.411 211.46 186.047C212.006 185.683 212.412 185.235 212.678 184.703L214.274 184.913C214.036 185.753 213.49 186.516 212.636 187.202C211.782 187.874 210.711 188.21 209.423 188.21C207.827 188.21 206.511 187.685 205.475 186.635C204.453 185.571 203.942 184.234 203.942 182.624C203.942 181.098 204.439 179.81 205.433 178.76C206.441 177.696 207.715 177.164 209.255 177.164C210.837 177.164 212.118 177.717 213.098 178.823C214.078 179.915 214.568 181.238 214.568 182.792ZM209.255 178.781C208.275 178.781 207.449 179.089 206.777 179.705C206.119 180.321 205.776 181.07 205.748 181.952H212.762C212.706 181.084 212.356 180.342 211.712 179.726C211.068 179.096 210.249 178.781 209.255 178.781ZM235.23 188L233.907 184.325H227.502L226.179 188H224.31L229.686 173.09H231.723L237.099 188H235.23ZM228.111 182.624H233.277L230.694 175.442L228.111 182.624ZM250.988 182.666C250.988 184.206 250.47 185.515 249.434 186.593C248.398 187.671 247.124 188.21 245.612 188.21C244.646 188.21 243.771 187.965 242.987 187.475C242.217 186.985 241.664 186.355 241.328 185.585L241.244 188H239.522V172.25H241.328V179.789C241.664 179.019 242.217 178.389 242.987 177.899C243.771 177.409 244.646 177.164 245.612 177.164C247.124 177.164 248.398 177.703 249.434 178.781C250.47 179.845 250.988 181.14 250.988 182.666ZM249.182 182.666C249.182 181.63 248.804 180.741 248.048 179.999C247.306 179.243 246.396 178.865 245.318 178.865C244.254 178.865 243.351 179.243 242.609 179.999C241.881 180.741 241.517 181.63 241.517 182.666C241.517 183.73 241.881 184.64 242.609 185.396C243.337 186.138 244.24 186.509 245.318 186.509C246.396 186.509 247.306 186.138 248.048 185.396C248.804 184.64 249.182 183.73 249.182 182.666ZM258.807 188.21C257.211 188.21 255.867 187.671 254.775 186.593C253.697 185.515 253.158 184.206 253.158 182.666C253.158 181.14 253.697 179.845 254.775 178.781C255.867 177.703 257.211 177.164 258.807 177.164C260.403 177.164 261.74 177.703 262.818 178.781C263.896 179.845 264.435 181.14 264.435 182.666C264.435 184.206 263.896 185.515 262.818 186.593C261.754 187.671 260.417 188.21 258.807 188.21ZM256.077 185.396C256.819 186.138 257.729 186.509 258.807 186.509C259.885 186.509 260.788 186.138 261.516 185.396C262.258 184.64 262.629 183.73 262.629 182.666C262.629 181.63 262.258 180.741 261.516 179.999C260.788 179.243 259.885 178.865 258.807 178.865C257.729 178.865 256.819 179.243 256.077 179.999C255.335 180.741 254.964 181.63 254.964 182.666C254.964 183.73 255.335 184.64 256.077 185.396ZM275.057 177.374H276.842V188H275.141L275.078 186.131C273.888 187.517 272.488 188.21 270.878 188.21C269.632 188.21 268.659 187.811 267.959 187.013C267.273 186.215 266.93 185.074 266.93 183.59V177.374H268.736V182.834C268.736 185.284 269.66 186.509 271.508 186.509C272.292 186.509 272.964 186.299 273.524 185.879C274.084 185.459 274.476 184.983 274.7 184.451C274.924 183.905 275.036 183.352 275.036 182.792H275.057V177.374ZM286.058 177.164C287.304 177.164 288.27 177.563 288.956 178.361C289.656 179.159 290.006 180.3 290.006 181.784V188H288.2V182.54C288.2 180.09 287.276 178.865 285.428 178.865C284.644 178.865 283.972 179.075 283.412 179.495C282.852 179.915 282.46 180.398 282.236 180.944C282.012 181.476 281.9 182.022 281.9 182.582V188H280.094V177.374H281.795L281.879 179.222C283.041 177.85 284.434 177.164 286.058 177.164ZM292.454 182.666C292.454 181.14 292.972 179.845 294.008 178.781C295.044 177.703 296.318 177.164 297.83 177.164C298.796 177.164 299.664 177.409 300.434 177.899C301.204 178.389 301.764 179.019 302.114 179.789V172.25H303.92V188H302.198L302.114 185.585C301.764 186.355 301.204 186.985 300.434 187.475C299.664 187.965 298.796 188.21 297.83 188.21C296.318 188.21 295.044 187.671 294.008 186.593C292.972 185.515 292.454 184.206 292.454 182.666ZM294.26 182.666C294.26 183.73 294.631 184.64 295.373 185.396C296.115 186.138 297.025 186.509 298.103 186.509C299.181 186.509 300.084 186.138 300.812 185.396C301.554 184.64 301.925 183.73 301.925 182.666C301.925 181.63 301.554 180.741 300.812 179.999C300.084 179.243 299.181 178.865 298.103 178.865C297.025 178.865 296.115 179.243 295.373 179.999C294.631 180.741 294.26 181.63 294.26 182.666ZM324.583 188L323.26 184.325H316.855L315.532 188H313.663L319.039 173.09H321.076L326.452 188H324.583ZM317.464 182.624H322.63L320.047 175.442L317.464 182.624ZM333.684 173.09C335.196 173.09 336.449 173.524 337.443 174.392C338.451 175.246 338.955 176.443 338.955 177.983C338.955 179.537 338.451 180.748 337.443 181.616C336.449 182.47 335.196 182.897 333.684 182.897H330.555V188H328.77V173.09H333.684ZM333.684 181.175C334.734 181.175 335.574 180.902 336.204 180.356C336.848 179.81 337.17 179.019 337.17 177.983C337.17 176.947 336.848 176.156 336.204 175.61C335.574 175.064 334.734 174.791 333.684 174.791H330.555V181.175H333.684ZM341.666 188V173.09H343.472V188H341.666ZM368.304 177.374H370.215L366.372 188H364.482L361.605 180.02L358.707 188H356.838L352.995 177.374H354.906L357.783 185.795L360.639 177.374H362.55L365.427 185.795L368.304 177.374ZM373.471 175.61C373.191 175.61 372.946 175.512 372.736 175.316C372.54 175.106 372.442 174.861 372.442 174.581C372.442 174.287 372.54 174.042 372.736 173.846C372.946 173.65 373.191 173.552 373.471 173.552C373.765 173.552 374.01 173.65 374.206 173.846C374.402 174.042 374.5 174.287 374.5 174.581C374.5 174.861 374.402 175.106 374.206 175.316C374.01 175.512 373.765 175.61 373.471 175.61ZM374.374 177.374V188H372.568V177.374H374.374ZM379.465 172.25V188H377.659V172.25H379.465ZM384.094 172.25V188H382.288V172.25H384.094ZM395.649 172.25V188H393.843V172.25H395.649ZM409.119 182.792V183.254H400.299C400.327 184.234 400.677 185.039 401.349 185.669C402.021 186.285 402.896 186.593 403.974 186.593C404.786 186.593 405.465 186.411 406.011 186.047C406.557 185.683 406.963 185.235 407.229 184.703L408.825 184.913C408.587 185.753 408.041 186.516 407.187 187.202C406.333 187.874 405.262 188.21 403.974 188.21C402.378 188.21 401.062 187.685 400.026 186.635C399.004 185.571 398.493 184.234 398.493 182.624C398.493 181.098 398.99 179.81 399.984 178.76C400.992 177.696 402.266 177.164 403.806 177.164C405.388 177.164 406.669 177.717 407.649 178.823C408.629 179.915 409.119 181.238 409.119 182.792ZM403.806 178.781C402.826 178.781 402 179.089 401.328 179.705C400.67 180.321 400.327 181.07 400.299 181.952H407.313C407.257 181.084 406.907 180.342 406.263 179.726C405.619 179.096 404.8 178.781 403.806 178.781ZM416.71 177.374V179.075H414.505V188H412.72V179.075H411.208V177.374H412.72V174.224H414.505V177.374H416.71ZM426.033 177.374H427.965L431.619 185.753L435.231 177.374H437.163L430.464 192.83H428.553L430.653 187.979L426.033 177.374ZM444.17 188.21C442.574 188.21 441.23 187.671 440.138 186.593C439.06 185.515 438.521 184.206 438.521 182.666C438.521 181.14 439.06 179.845 440.138 178.781C441.23 177.703 442.574 177.164 444.17 177.164C445.766 177.164 447.103 177.703 448.181 178.781C449.259 179.845 449.798 181.14 449.798 182.666C449.798 184.206 449.259 185.515 448.181 186.593C447.117 187.671 445.78 188.21 444.17 188.21ZM441.44 185.396C442.182 186.138 443.092 186.509 444.17 186.509C445.248 186.509 446.151 186.138 446.879 185.396C447.621 184.64 447.992 183.73 447.992 182.666C447.992 181.63 447.621 180.741 446.879 179.999C446.151 179.243 445.248 178.865 444.17 178.865C443.092 178.865 442.182 179.243 441.44 179.999C440.698 180.741 440.327 181.63 440.327 182.666C440.327 183.73 440.698 184.64 441.44 185.396ZM460.421 177.374H462.206V188H460.505L460.442 186.131C459.252 187.517 457.852 188.21 456.242 188.21C454.996 188.21 454.023 187.811 453.323 187.013C452.637 186.215 452.294 185.074 452.294 183.59V177.374H454.1V182.834C454.1 185.284 455.024 186.509 456.872 186.509C457.656 186.509 458.328 186.299 458.888 185.879C459.448 185.459 459.84 184.983 460.064 184.451C460.288 183.905 460.4 183.352 460.4 182.792H460.421V177.374ZM472.158 182.666C472.158 181.14 472.676 179.845 473.712 178.781C474.748 177.703 476.022 177.164 477.534 177.164C478.5 177.164 479.368 177.409 480.138 177.899C480.908 178.389 481.468 179.019 481.818 179.789V172.25H483.624V188H481.902L481.818 185.585C481.468 186.355 480.908 186.985 480.138 187.475C479.368 187.965 478.5 188.21 477.534 188.21C476.022 188.21 474.748 187.671 473.712 186.593C472.676 185.515 472.158 184.206 472.158 182.666ZM473.964 182.666C473.964 183.73 474.335 184.64 475.077 185.396C475.819 186.138 476.729 186.509 477.807 186.509C478.885 186.509 479.788 186.138 480.516 185.396C481.258 184.64 481.629 183.73 481.629 182.666C481.629 181.63 481.258 180.741 480.516 179.999C479.788 179.243 478.885 178.865 477.807 178.865C476.729 178.865 475.819 179.243 475.077 179.999C474.335 180.741 473.964 181.63 473.964 182.666ZM492.32 188.21C490.724 188.21 489.38 187.671 488.288 186.593C487.21 185.515 486.671 184.206 486.671 182.666C486.671 181.14 487.21 179.845 488.288 178.781C489.38 177.703 490.724 177.164 492.32 177.164C493.916 177.164 495.253 177.703 496.331 178.781C497.409 179.845 497.948 181.14 497.948 182.666C497.948 184.206 497.409 185.515 496.331 186.593C495.267 187.671 493.93 188.21 492.32 188.21ZM489.59 185.396C490.332 186.138 491.242 186.509 492.32 186.509C493.398 186.509 494.301 186.138 495.029 185.396C495.771 184.64 496.142 183.73 496.142 182.666C496.142 181.63 495.771 180.741 495.029 179.999C494.301 179.243 493.398 178.865 492.32 178.865C491.242 178.865 490.332 179.243 489.59 179.999C488.848 180.741 488.477 181.63 488.477 182.666C488.477 183.73 488.848 184.64 489.59 185.396ZM133.031 222.706L131.792 223.966L129.713 221.866C128.439 222.762 127.004 223.21 125.408 223.21C123.294 223.21 121.509 222.468 120.053 220.984C118.611 219.486 117.89 217.673 117.89 215.545C117.89 213.417 118.611 211.611 120.053 210.127C121.509 208.629 123.294 207.88 125.408 207.88C127.522 207.88 129.307 208.629 130.763 210.127C132.219 211.611 132.947 213.417 132.947 215.545C132.947 217.505 132.303 219.22 131.015 220.69L133.031 222.706ZM125.408 221.509C126.514 221.509 127.536 221.208 128.474 220.606L126.374 218.485L127.613 217.246L129.776 219.43C130.686 218.324 131.141 217.029 131.141 215.545C131.141 213.907 130.588 212.507 129.482 211.345C128.376 210.169 127.018 209.581 125.408 209.581C123.798 209.581 122.44 210.169 121.334 211.345C120.242 212.507 119.696 213.907 119.696 215.545C119.696 217.183 120.242 218.59 121.334 219.766C122.44 220.928 123.798 221.509 125.408 221.509ZM143.44 212.374H145.225V223H143.524L143.461 221.131C142.271 222.517 140.871 223.21 139.261 223.21C138.015 223.21 137.042 222.811 136.342 222.013C135.656 221.215 135.313 220.074 135.313 218.59V212.374H137.119V217.834C137.119 220.284 138.043 221.509 139.891 221.509C140.675 221.509 141.347 221.299 141.907 220.879C142.467 220.459 142.859 219.983 143.083 219.451C143.307 218.905 143.419 218.352 143.419 217.792H143.44V212.374ZM148.979 210.61C148.699 210.61 148.454 210.512 148.244 210.316C148.048 210.106 147.95 209.861 147.95 209.581C147.95 209.287 148.048 209.042 148.244 208.846C148.454 208.65 148.699 208.552 148.979 208.552C149.273 208.552 149.518 208.65 149.714 208.846C149.91 209.042 150.008 209.287 150.008 209.581C150.008 209.861 149.91 210.106 149.714 210.316C149.518 210.512 149.273 210.61 148.979 210.61ZM149.882 212.374V223H148.076V212.374H149.882ZM161.72 215.188C160.81 214.306 159.795 213.865 158.675 213.865C157.639 213.865 156.729 214.236 155.945 214.978C155.175 215.706 154.79 216.602 154.79 217.666C154.79 218.758 155.175 219.675 155.945 220.417C156.715 221.145 157.625 221.509 158.675 221.509C159.809 221.509 160.824 221.061 161.72 220.165V221.929C160.838 222.783 159.732 223.21 158.402 223.21C156.862 223.21 155.56 222.671 154.496 221.593C153.432 220.501 152.9 219.192 152.9 217.666C152.9 216.154 153.432 214.859 154.496 213.781C155.56 212.703 156.862 212.164 158.402 212.164C159.732 212.164 160.838 212.591 161.72 213.445V215.188ZM174.573 212.374L169.701 216.994L174.573 223H172.326L168.42 218.212L166.656 219.871V223H164.85V207.25H166.656V217.477L172.053 212.374H174.573ZM193.141 215.188C192.231 214.306 191.216 213.865 190.096 213.865C189.06 213.865 188.15 214.236 187.366 214.978C186.596 215.706 186.211 216.602 186.211 217.666C186.211 218.758 186.596 219.675 187.366 220.417C188.136 221.145 189.046 221.509 190.096 221.509C191.23 221.509 192.245 221.061 193.141 220.165V221.929C192.259 222.783 191.153 223.21 189.823 223.21C188.283 223.21 186.981 222.671 185.917 221.593C184.853 220.501 184.321 219.192 184.321 217.666C184.321 216.154 184.853 214.859 185.917 213.781C186.981 212.703 188.283 212.164 189.823 212.164C191.153 212.164 192.259 212.591 193.141 213.445V215.188ZM195.533 217.666C195.533 216.14 196.051 214.845 197.087 213.781C198.123 212.703 199.397 212.164 200.909 212.164C201.875 212.164 202.743 212.409 203.513 212.899C204.283 213.389 204.843 214.019 205.193 214.789L205.277 212.374H206.999V223H205.277L205.193 220.585C204.843 221.355 204.283 221.985 203.513 222.475C202.743 222.965 201.875 223.21 200.909 223.21C199.397 223.21 198.123 222.671 197.087 221.593C196.051 220.515 195.533 219.206 195.533 217.666ZM197.339 217.666C197.339 218.73 197.71 219.64 198.452 220.396C199.194 221.138 200.104 221.509 201.182 221.509C202.26 221.509 203.163 221.138 203.891 220.396C204.633 219.64 205.004 218.73 205.004 217.666C205.004 216.63 204.633 215.741 203.891 214.999C203.163 214.243 202.26 213.865 201.182 213.865C200.104 213.865 199.194 214.243 198.452 214.999C197.71 215.741 197.339 216.63 197.339 217.666ZM209.945 220.06H211.751C212.059 221.138 212.948 221.677 214.418 221.677C215.062 221.677 215.587 221.551 215.993 221.299C216.399 221.047 216.602 220.711 216.602 220.291C216.602 220.165 216.588 220.046 216.56 219.934C216.546 219.822 216.504 219.717 216.434 219.619C216.364 219.521 216.301 219.437 216.245 219.367C216.189 219.283 216.084 219.199 215.93 219.115C215.79 219.031 215.671 218.968 215.573 218.926C215.489 218.87 215.335 218.8 215.111 218.716C214.901 218.618 214.733 218.548 214.607 218.506C214.481 218.45 214.271 218.366 213.977 218.254C213.683 218.142 213.452 218.058 213.284 218.002C212.374 217.694 211.646 217.309 211.1 216.847C210.568 216.385 210.302 215.769 210.302 214.999C210.302 214.145 210.659 213.459 211.373 212.941C212.087 212.423 212.927 212.164 213.893 212.164C214.999 212.164 215.902 212.444 216.602 213.004C217.302 213.564 217.68 214.285 217.736 215.167H215.951C215.895 214.705 215.671 214.341 215.279 214.075C214.887 213.809 214.439 213.676 213.935 213.676C213.459 213.676 213.032 213.795 212.654 214.033C212.276 214.271 212.087 214.593 212.087 214.999C212.087 215.111 212.094 215.216 212.108 215.314C212.136 215.398 212.185 215.482 212.255 215.566C212.325 215.65 212.388 215.727 212.444 215.797C212.5 215.853 212.591 215.923 212.717 216.007C212.857 216.077 212.969 216.14 213.053 216.196C213.151 216.238 213.305 216.301 213.515 216.385C213.725 216.469 213.893 216.539 214.019 216.595C214.145 216.637 214.341 216.707 214.607 216.805C214.887 216.903 215.111 216.987 215.279 217.057C216.329 217.449 217.113 217.904 217.631 218.422C218.149 218.926 218.408 219.563 218.408 220.333C218.408 221.201 218.03 221.901 217.274 222.433C216.518 222.951 215.552 223.21 214.376 223.21C213.13 223.21 212.108 222.937 211.31 222.391C210.526 221.845 210.071 221.068 209.945 220.06ZM231.311 217.792V218.254H222.491C222.519 219.234 222.869 220.039 223.541 220.669C224.213 221.285 225.088 221.593 226.166 221.593C226.978 221.593 227.657 221.411 228.203 221.047C228.749 220.683 229.155 220.235 229.421 219.703L231.017 219.913C230.779 220.753 230.233 221.516 229.379 222.202C228.525 222.874 227.454 223.21 226.166 223.21C224.57 223.21 223.254 222.685 222.218 221.635C221.196 220.571 220.685 219.234 220.685 217.624C220.685 216.098 221.182 214.81 222.176 213.76C223.184 212.696 224.458 212.164 225.998 212.164C227.58 212.164 228.861 212.717 229.841 213.823C230.821 214.915 231.311 216.238 231.311 217.792ZM225.998 213.781C225.018 213.781 224.192 214.089 223.52 214.705C222.862 215.321 222.519 216.07 222.491 216.952H229.505C229.449 216.084 229.099 215.342 228.455 214.726C227.811 214.096 226.992 213.781 225.998 213.781ZM241.263 220.06H243.069C243.377 221.138 244.266 221.677 245.736 221.677C246.38 221.677 246.905 221.551 247.311 221.299C247.717 221.047 247.92 220.711 247.92 220.291C247.92 220.165 247.906 220.046 247.878 219.934C247.864 219.822 247.822 219.717 247.752 219.619C247.682 219.521 247.619 219.437 247.563 219.367C247.507 219.283 247.402 219.199 247.248 219.115C247.108 219.031 246.989 218.968 246.891 218.926C246.807 218.87 246.653 218.8 246.429 218.716C246.219 218.618 246.051 218.548 245.925 218.506C245.799 218.45 245.589 218.366 245.295 218.254C245.001 218.142 244.77 218.058 244.602 218.002C243.692 217.694 242.964 217.309 242.418 216.847C241.886 216.385 241.62 215.769 241.62 214.999C241.62 214.145 241.977 213.459 242.691 212.941C243.405 212.423 244.245 212.164 245.211 212.164C246.317 212.164 247.22 212.444 247.92 213.004C248.62 213.564 248.998 214.285 249.054 215.167H247.269C247.213 214.705 246.989 214.341 246.597 214.075C246.205 213.809 245.757 213.676 245.253 213.676C244.777 213.676 244.35 213.795 243.972 214.033C243.594 214.271 243.405 214.593 243.405 214.999C243.405 215.111 243.412 215.216 243.426 215.314C243.454 215.398 243.503 215.482 243.573 215.566C243.643 215.65 243.706 215.727 243.762 215.797C243.818 215.853 243.909 215.923 244.035 216.007C244.175 216.077 244.287 216.14 244.371 216.196C244.469 216.238 244.623 216.301 244.833 216.385C245.043 216.469 245.211 216.539 245.337 216.595C245.463 216.637 245.659 216.707 245.925 216.805C246.205 216.903 246.429 216.987 246.597 217.057C247.647 217.449 248.431 217.904 248.949 218.422C249.467 218.926 249.726 219.563 249.726 220.333C249.726 221.201 249.348 221.901 248.592 222.433C247.836 222.951 246.87 223.21 245.694 223.21C244.448 223.21 243.426 222.937 242.628 222.391C241.844 221.845 241.389 221.068 241.263 220.06ZM257.183 212.374V214.075H254.978V223H253.193V214.075H251.681V212.374H253.193V209.224H254.978V212.374H257.183ZM267.669 212.374H269.454V223H267.753L267.69 221.131C266.5 222.517 265.1 223.21 263.49 223.21C262.244 223.21 261.271 222.811 260.571 222.013C259.885 221.215 259.542 220.074 259.542 218.59V212.374H261.348V217.834C261.348 220.284 262.272 221.509 264.12 221.509C264.904 221.509 265.576 221.299 266.136 220.879C266.696 220.459 267.088 219.983 267.312 219.451C267.536 218.905 267.648 218.352 267.648 217.792H267.669V212.374ZM271.946 217.666C271.946 216.14 272.464 214.845 273.5 213.781C274.536 212.703 275.81 212.164 277.322 212.164C278.288 212.164 279.156 212.409 279.926 212.899C280.696 213.389 281.256 214.019 281.606 214.789V207.25H283.412V223H281.69L281.606 220.585C281.256 221.355 280.696 221.985 279.926 222.475C279.156 222.965 278.288 223.21 277.322 223.21C275.81 223.21 274.536 222.671 273.5 221.593C272.464 220.515 271.946 219.206 271.946 217.666ZM273.752 217.666C273.752 218.73 274.123 219.64 274.865 220.396C275.607 221.138 276.517 221.509 277.595 221.509C278.673 221.509 279.576 221.138 280.304 220.396C281.046 219.64 281.417 218.73 281.417 217.666C281.417 216.63 281.046 215.741 280.304 214.999C279.576 214.243 278.673 213.865 277.595 213.865C276.517 213.865 275.607 214.243 274.865 214.999C274.123 215.741 273.752 216.63 273.752 217.666ZM286.148 212.374H288.08L291.734 220.753L295.346 212.374H297.278L290.579 227.83H288.668L290.768 222.979L286.148 212.374ZM133.031 257.706L131.792 258.966L129.713 256.866C128.439 257.762 127.004 258.21 125.408 258.21C123.294 258.21 121.509 257.468 120.053 255.984C118.611 254.486 117.89 252.673 117.89 250.545C117.89 248.417 118.611 246.611 120.053 245.127C121.509 243.629 123.294 242.88 125.408 242.88C127.522 242.88 129.307 243.629 130.763 245.127C132.219 246.611 132.947 248.417 132.947 250.545C132.947 252.505 132.303 254.22 131.015 255.69L133.031 257.706ZM125.408 256.509C126.514 256.509 127.536 256.208 128.474 255.606L126.374 253.485L127.613 252.246L129.776 254.43C130.686 253.324 131.141 252.029 131.141 250.545C131.141 248.907 130.588 247.507 129.482 246.345C128.376 245.169 127.018 244.581 125.408 244.581C123.798 244.581 122.44 245.169 121.334 246.345C120.242 247.507 119.696 248.907 119.696 250.545C119.696 252.183 120.242 253.59 121.334 254.766C122.44 255.928 123.798 256.509 125.408 256.509ZM149.705 258H147.542L146.471 256.929C145.365 257.783 144 258.21 142.376 258.21C140.752 258.21 139.464 257.776 138.512 256.908C137.574 256.04 137.105 254.962 137.105 253.674C137.105 252.792 137.336 252.022 137.798 251.364C138.26 250.692 138.806 250.188 139.436 249.852C138.526 248.886 138.071 247.857 138.071 246.765C138.071 245.715 138.463 244.805 139.247 244.035C140.045 243.265 141.144 242.88 142.544 242.88C143.86 242.88 144.903 243.293 145.673 244.119C146.457 244.945 146.849 245.946 146.849 247.122H145.064C145.064 246.366 144.833 245.757 144.371 245.295C143.909 244.819 143.279 244.581 142.481 244.581C141.697 244.581 141.06 244.812 140.57 245.274C140.094 245.722 139.856 246.275 139.856 246.933C139.856 247.297 139.94 247.647 140.108 247.983C140.276 248.319 140.444 248.585 140.612 248.781C140.78 248.977 141.039 249.243 141.389 249.579L146.303 254.556C146.905 253.66 147.206 252.631 147.206 251.469H146.177V250.503H149.012C149.012 252.701 148.522 254.472 147.542 255.816L149.705 258ZM142.565 256.509C143.559 256.509 144.448 256.229 145.232 255.669L140.444 250.86C140.01 251.056 139.646 251.371 139.352 251.805C139.058 252.225 138.911 252.722 138.911 253.296C138.911 254.192 139.247 254.955 139.919 255.585C140.591 256.201 141.473 256.509 142.565 256.509ZM162.447 258L161.124 254.325H154.719L153.396 258H151.527L156.903 243.09H158.94L164.316 258H162.447ZM155.328 252.624H160.494L157.911 245.442L155.328 252.624ZM127.928 278.09H129.734V293H127.928L119.486 281.135V293H117.68V278.09H119.486L127.928 289.955V278.09ZM143.194 287.792V288.254H134.374C134.402 289.234 134.752 290.039 135.424 290.669C136.096 291.285 136.971 291.593 138.049 291.593C138.861 291.593 139.54 291.411 140.086 291.047C140.632 290.683 141.038 290.235 141.304 289.703L142.9 289.913C142.662 290.753 142.116 291.516 141.262 292.202C140.408 292.874 139.337 293.21 138.049 293.21C136.453 293.21 135.137 292.685 134.101 291.635C133.079 290.571 132.568 289.234 132.568 287.624C132.568 286.098 133.065 284.81 134.059 283.76C135.067 282.696 136.341 282.164 137.881 282.164C139.463 282.164 140.744 282.717 141.724 283.823C142.704 284.915 143.194 286.238 143.194 287.792ZM137.881 283.781C136.901 283.781 136.075 284.089 135.403 284.705C134.745 285.321 134.402 286.07 134.374 286.952H141.388C141.332 286.084 140.982 285.342 140.338 284.726C139.694 284.096 138.875 283.781 137.881 283.781ZM144.759 293L149.064 287.687L144.759 282.374H146.985L150.177 286.448L153.348 282.374H155.574L151.269 287.687L155.574 293H153.348L150.177 288.926L146.985 293H144.759ZM163.022 282.374V284.075H160.817V293H159.032V284.075H157.52V282.374H159.032V279.224H160.817V282.374H163.022ZM172.787 288.842H174.593C174.649 289.696 174.964 290.354 175.538 290.816C176.112 291.278 176.791 291.509 177.575 291.509C178.429 291.509 179.101 291.313 179.591 290.921C180.095 290.515 180.347 289.997 180.347 289.367C180.347 288.989 180.27 288.646 180.116 288.338C179.976 288.03 179.731 287.743 179.381 287.477C179.031 287.211 178.709 286.994 178.415 286.826C178.121 286.644 177.694 286.413 177.134 286.133C175.664 285.349 174.621 284.649 174.005 284.033C173.403 283.403 173.102 282.57 173.102 281.534C173.102 280.47 173.508 279.595 174.32 278.909C175.146 278.223 176.154 277.88 177.344 277.88C178.548 277.88 179.542 278.272 180.326 279.056C181.11 279.84 181.537 280.806 181.607 281.954H179.801C179.731 281.254 179.472 280.687 179.024 280.253C178.576 279.805 178.016 279.581 177.344 279.581C176.658 279.581 176.077 279.77 175.601 280.148C175.139 280.526 174.908 281.016 174.908 281.618C174.908 281.926 174.957 282.206 175.055 282.458C175.167 282.71 175.279 282.913 175.391 283.067C175.517 283.221 175.734 283.403 176.042 283.613C176.364 283.809 176.609 283.949 176.777 284.033C176.945 284.117 177.26 284.271 177.722 284.495C179.22 285.265 180.326 286.007 181.04 286.721C181.768 287.435 182.132 288.338 182.132 289.43C182.132 290.578 181.698 291.495 180.83 292.181C179.976 292.867 178.891 293.21 177.575 293.21C176.231 293.21 175.111 292.797 174.215 291.971C173.333 291.145 172.857 290.102 172.787 288.842ZM189.521 282.374V284.075H187.316V293H185.531V284.075H184.019V282.374H185.531V279.224H187.316V282.374H189.521ZM201.894 287.792V288.254H193.074C193.102 289.234 193.452 290.039 194.124 290.669C194.796 291.285 195.671 291.593 196.749 291.593C197.561 291.593 198.24 291.411 198.786 291.047C199.332 290.683 199.738 290.235 200.004 289.703L201.6 289.913C201.362 290.753 200.816 291.516 199.962 292.202C199.108 292.874 198.037 293.21 196.749 293.21C195.153 293.21 193.837 292.685 192.801 291.635C191.779 290.571 191.268 289.234 191.268 287.624C191.268 286.098 191.765 284.81 192.759 283.76C193.767 282.696 195.041 282.164 196.581 282.164C198.163 282.164 199.444 282.717 200.424 283.823C201.404 284.915 201.894 286.238 201.894 287.792ZM196.581 283.781C195.601 283.781 194.775 284.089 194.103 284.705C193.445 285.321 193.102 286.07 193.074 286.952H200.088C200.032 286.084 199.682 285.342 199.038 284.726C198.394 284.096 197.575 283.781 196.581 283.781ZM204.613 297.83V282.374H206.314L206.419 284.789C206.755 284.019 207.301 283.389 208.057 282.899C208.827 282.409 209.702 282.164 210.682 282.164C212.194 282.164 213.468 282.703 214.504 283.781C215.554 284.845 216.079 286.14 216.079 287.666C216.079 289.206 215.554 290.515 214.504 291.593C213.468 292.671 212.194 293.21 210.682 293.21C209.702 293.21 208.827 292.965 208.057 292.475C207.301 291.985 206.755 291.355 206.419 290.585V297.83H204.613ZM206.587 287.666C206.587 288.73 206.951 289.64 207.679 290.396C208.421 291.138 209.331 291.509 210.409 291.509C211.487 291.509 212.397 291.138 213.139 290.396C213.895 289.64 214.273 288.73 214.273 287.666C214.273 286.63 213.895 285.741 213.139 284.999C212.397 284.243 211.487 283.865 210.409 283.865C209.345 283.865 208.442 284.243 207.7 284.999C206.958 285.741 206.587 286.63 206.587 287.666ZM218.163 290.06H219.969C220.277 291.138 221.166 291.677 222.636 291.677C223.28 291.677 223.805 291.551 224.211 291.299C224.617 291.047 224.82 290.711 224.82 290.291C224.82 290.165 224.806 290.046 224.778 289.934C224.764 289.822 224.722 289.717 224.652 289.619C224.582 289.521 224.519 289.437 224.463 289.367C224.407 289.283 224.302 289.199 224.148 289.115C224.008 289.031 223.889 288.968 223.791 288.926C223.707 288.87 223.553 288.8 223.329 288.716C223.119 288.618 222.951 288.548 222.825 288.506C222.699 288.45 222.489 288.366 222.195 288.254C221.901 288.142 221.67 288.058 221.502 288.002C220.592 287.694 219.864 287.309 219.318 286.847C218.786 286.385 218.52 285.769 218.52 284.999C218.52 284.145 218.877 283.459 219.591 282.941C220.305 282.423 221.145 282.164 222.111 282.164C223.217 282.164 224.12 282.444 224.82 283.004C225.52 283.564 225.898 284.285 225.954 285.167H224.169C224.113 284.705 223.889 284.341 223.497 284.075C223.105 283.809 222.657 283.676 222.153 283.676C221.677 283.676 221.25 283.795 220.872 284.033C220.494 284.271 220.305 284.593 220.305 284.999C220.305 285.111 220.312 285.216 220.326 285.314C220.354 285.398 220.403 285.482 220.473 285.566C220.543 285.65 220.606 285.727 220.662 285.797C220.718 285.853 220.809 285.923 220.935 286.007C221.075 286.077 221.187 286.14 221.271 286.196C221.369 286.238 221.523 286.301 221.733 286.385C221.943 286.469 222.111 286.539 222.237 286.595C222.363 286.637 222.559 286.707 222.825 286.805C223.105 286.903 223.329 286.987 223.497 287.057C224.547 287.449 225.331 287.904 225.849 288.422C226.367 288.926 226.626 289.563 226.626 290.333C226.626 291.201 226.248 291.901 225.492 292.433C224.736 292.951 223.77 293.21 222.594 293.21C221.348 293.21 220.326 292.937 219.528 292.391C218.744 291.845 218.289 291.068 218.163 290.06Z" fill="white"/>
<g filter="url(#filter0_di)">
<path fill-rule="evenodd" clip-rule="evenodd" d="M98.8198 182.212C98.8198 181.598 98.58 181.001 98.1256 180.56L90.2514 172.686C89.3373 171.771 87.8638 171.771 86.9497 172.686C86.0448 173.59 86.0448 175.073 86.9497 175.978C88.389 177.417 87.3696 179.878 85.3341 179.878H68.3342C67.041 179.878 66 180.919 66 182.212C66 183.506 67.041 184.547 68.3342 184.547H85.3342C87.3696 184.547 88.389 187.007 86.9497 188.447C86.5068 188.89 86.2618 189.489 86.2618 190.093C86.2618 190.689 86.486 191.289 86.9569 191.746C87.8715 192.653 89.3397 192.651 90.2514 191.739L98.132 183.859C98.5583 183.432 98.8198 182.836 98.8198 182.212Z" fill="white"/>
</g>
<g filter="url(#filter1_di)">
<path fill-rule="evenodd" clip-rule="evenodd" d="M98.8198 216.212C98.8198 215.598 98.58 215.001 98.1256 214.56L90.2514 206.686C89.3373 205.771 87.8638 205.771 86.9497 206.686C86.0448 207.59 86.0448 209.073 86.9497 209.978C88.389 211.417 87.3696 213.878 85.3341 213.878H68.3342C67.041 213.878 66 214.919 66 216.212C66 217.506 67.041 218.547 68.3342 218.547H85.3342C87.3696 218.547 88.389 221.007 86.9497 222.447C86.5068 222.89 86.2618 223.489 86.2618 224.093C86.2618 224.689 86.486 225.289 86.9569 225.746C87.8715 226.653 89.3397 226.651 90.2514 225.739L98.132 217.859C98.5583 217.432 98.8198 216.836 98.8198 216.212Z" fill="white"/>
</g>
<g filter="url(#filter2_di)">
<path fill-rule="evenodd" clip-rule="evenodd" d="M98.8198 250.212C98.8198 249.598 98.58 249.001 98.1256 248.56L90.2514 240.686C89.3373 239.771 87.8638 239.771 86.9497 240.686C86.0448 241.59 86.0448 243.073 86.9497 243.978C88.389 245.417 87.3696 247.878 85.3341 247.878H68.3342C67.041 247.878 66 248.919 66 250.212C66 251.506 67.041 252.547 68.3342 252.547H85.3342C87.3696 252.547 88.389 255.007 86.9497 256.447C86.5068 256.89 86.2618 257.489 86.2618 258.093C86.2618 258.689 86.486 259.289 86.9569 259.746C87.8715 260.653 89.3397 260.651 90.2514 259.739L98.132 251.859C98.5583 251.432 98.8198 250.836 98.8198 250.212Z" fill="white"/>
</g>
<g filter="url(#filter3_di)">
<path fill-rule="evenodd" clip-rule="evenodd" d="M98.8198 284.212C98.8198 283.598 98.58 283.001 98.1256 282.56L90.2514 274.686C89.3373 273.771 87.8638 273.771 86.9497 274.686C86.0448 275.59 86.0448 277.073 86.9497 277.978C88.389 279.417 87.3696 281.878 85.3341 281.878H68.3342C67.041 281.878 66 282.919 66 284.212C66 285.506 67.041 286.547 68.3342 286.547H85.3342C87.3696 286.547 88.389 289.007 86.9497 290.447C86.5068 290.89 86.2618 291.489 86.2618 292.093C86.2618 292.689 86.486 293.289 86.9569 293.746C87.8715 294.653 89.3397 294.651 90.2514 293.739L98.132 285.859C98.5583 285.432 98.8198 284.836 98.8198 284.212Z" fill="white"/>
</g>
<line x1="67" y1="84" x2="67" y2="286" stroke="white" stroke-width="4"/>
<g filter="url(#filter4_d)">
<rect x="87" y="51" width="38" height="38" rx="5" transform="rotate(-180 87 51)" fill="white"/>
</g>
<g filter="url(#filter5_d)">
<rect x="87" y="103" width="38" height="38" rx="5" transform="rotate(-180 87 103)" fill="white"/>
</g>
<g opacity="0.8" filter="url(#filter6_d)">
<path fill-rule="evenodd" clip-rule="evenodd" d="M68.5002 22.5C64.0013 22.5 60.3543 26.3056 60.3543 31C60.3543 35.6944 64.0013 39.5 68.5002 39.5C68.7648 39.5 68.9793 39.7239 68.9793 40C68.9793 40.2761 68.7648 40.5 68.5002 40.5C63.4721 40.5 59.396 36.2467 59.396 31C59.396 25.7533 63.4721 21.5 68.5002 21.5C73.5283 21.5 77.6043 25.7533 77.6043 31C77.6043 34.2942 75.9971 37.1966 73.5584 38.9C73.3488 39.0463 73.0664 38.9982 72.9124 38.7898L68.1207 32.3053C68.0561 32.2178 68.021 32.1105 68.021 32V26C68.021 25.7239 68.2355 25.5 68.5002 25.5C68.7648 25.5 68.9793 25.7239 68.9793 26V31.8296L73.3902 37.7987C75.3681 36.2471 76.646 33.7792 76.646 31C76.646 26.3056 72.999 22.5 68.5002 22.5Z" fill="#063395"/>
</g>
<g opacity="0.8">
<path fill-rule="evenodd" clip-rule="evenodd" d="M68.5002 75.5C64.0013 75.5 60.3543 79.3056 60.3543 84C60.3543 88.6944 64.0013 92.5 68.5002 92.5C68.7648 92.5 68.9793 92.7239 68.9793 93C68.9793 93.2761 68.7648 93.5 68.5002 93.5C63.4721 93.5 59.396 89.2467 59.396 84C59.396 78.7533 63.4721 74.5 68.5002 74.5C73.5283 74.5 77.6043 78.7533 77.6043 84C77.6043 87.2942 75.9971 90.1966 73.5584 91.9C73.3488 92.0463 73.0664 91.9982 72.9124 91.7898L68.1207 85.3053C68.0561 85.2178 68.021 85.1105 68.021 85V79C68.021 78.7239 68.2355 78.5 68.5002 78.5C68.7648 78.5 68.9793 78.7239 68.9793 79V84.8296L73.3902 90.7987C75.3681 89.2471 76.646 86.7792 76.646 84C76.646 79.3056 72.999 75.5 68.5002 75.5Z" fill="#063395"/>
</g>
<defs>
<filter id="filter0_di" x="55" y="170" width="46.8198" height="36.4248" filterUnits="userSpaceOnUse" color-interpolation-filters="sRGB">
<feFlood flood-opacity="0" result="BackgroundImageFix"/>
<feColorMatrix in="SourceAlpha" type="matrix" values="0 0 0 0 0 0 0 0 0 0 0 0 0 0 0 0 0 0 127 0"/>
<feOffset dx="-4" dy="7"/>
<feGaussianBlur stdDeviation="3.5"/>
<feColorMatrix type="matrix" values="0 0 0 0 0 0 0 0 0 0 0 0 0 0 0 0 0 0 0.25 0"/>
<feBlend mode="normal" in2="BackgroundImageFix" result="effect1_dropShadow"/>
<feBlend mode="normal" in="SourceGraphic" in2="effect1_dropShadow" result="shape"/>
<feColorMatrix in="SourceAlpha" type="matrix" values="0 0 0 0 0 0 0 0 0 0 0 0 0 0 0 0 0 0 127 0" result="hardAlpha"/>
<feOffset dx="2" dy="-2"/>
<feGaussianBlur stdDeviation="2"/>
<feComposite in2="hardAlpha" operator="arithmetic" k2="-1" k3="1"/>
<feColorMatrix type="matrix" values="0 0 0 0 1 0 0 0 0 1 0 0 0 0 1 0 0 0 1 0"/>
<feBlend mode="normal" in2="shape" result="effect2_innerShadow"/>
</filter>
<filter id="filter1_di" x="55" y="204" width="46.8198" height="36.4248" filterUnits="userSpaceOnUse" color-interpolation-filters="sRGB">
<feFlood flood-opacity="0" result="BackgroundImageFix"/>
<feColorMatrix in="SourceAlpha" type="matrix" values="0 0 0 0 0 0 0 0 0 0 0 0 0 0 0 0 0 0 127 0"/>
<feOffset dx="-4" dy="7"/>
<feGaussianBlur stdDeviation="3.5"/>
<feColorMatrix type="matrix" values="0 0 0 0 0 0 0 0 0 0 0 0 0 0 0 0 0 0 0.25 0"/>
<feBlend mode="normal" in2="BackgroundImageFix" result="effect1_dropShadow"/>
<feBlend mode="normal" in="SourceGraphic" in2="effect1_dropShadow" result="shape"/>
<feColorMatrix in="SourceAlpha" type="matrix" values="0 0 0 0 0 0 0 0 0 0 0 0 0 0 0 0 0 0 127 0" result="hardAlpha"/>
<feOffset dx="2" dy="-2"/>
<feGaussianBlur stdDeviation="2"/>
<feComposite in2="hardAlpha" operator="arithmetic" k2="-1" k3="1"/>
<feColorMatrix type="matrix" values="0 0 0 0 1 0 0 0 0 1 0 0 0 0 1 0 0 0 1 0"/>
<feBlend mode="normal" in2="shape" result="effect2_innerShadow"/>
</filter>
<filter id="filter2_di" x="55" y="238" width="46.8198" height="36.4248" filterUnits="userSpaceOnUse" color-interpolation-filters="sRGB">
<feFlood flood-opacity="0" result="BackgroundImageFix"/>
<feColorMatrix in="SourceAlpha" type="matrix" values="0 0 0 0 0 0 0 0 0 0 0 0 0 0 0 0 0 0 127 0"/>
<feOffset dx="-4" dy="7"/>
<feGaussianBlur stdDeviation="3.5"/>
<feColorMatrix type="matrix" values="0 0 0 0 0 0 0 0 0 0 0 0 0 0 0 0 0 0 0.25 0"/>
<feBlend mode="normal" in2="BackgroundImageFix" result="effect1_dropShadow"/>
<feBlend mode="normal" in="SourceGraphic" in2="effect1_dropShadow" result="shape"/>
<feColorMatrix in="SourceAlpha" type="matrix" values="0 0 0 0 0 0 0 0 0 0 0 0 0 0 0 0 0 0 127 0" result="hardAlpha"/>
<feOffset dx="2" dy="-2"/>
<feGaussianBlur stdDeviation="2"/>
<feComposite in2="hardAlpha" operator="arithmetic" k2="-1" k3="1"/>
<feColorMatrix type="matrix" values="0 0 0 0 1 0 0 0 0 1 0 0 0 0 1 0 0 0 1 0"/>
<feBlend mode="normal" in2="shape" result="effect2_innerShadow"/>
</filter>
<filter id="filter3_di" x="55" y="272" width="46.8198" height="36.4248" filterUnits="userSpaceOnUse" color-interpolation-filters="sRGB">
<feFlood flood-opacity="0" result="BackgroundImageFix"/>
<feColorMatrix in="SourceAlpha" type="matrix" values="0 0 0 0 0 0 0 0 0 0 0 0 0 0 0 0 0 0 127 0"/>
<feOffset dx="-4" dy="7"/>
<feGaussianBlur stdDeviation="3.5"/>
<feColorMatrix type="matrix" values="0 0 0 0 0 0 0 0 0 0 0 0 0 0 0 0 0 0 0.25 0"/>
<feBlend mode="normal" in2="BackgroundImageFix" result="effect1_dropShadow"/>
<feBlend mode="normal" in="SourceGraphic" in2="effect1_dropShadow" result="shape"/>
<feColorMatrix in="SourceAlpha" type="matrix" values="0 0 0 0 0 0 0 0 0 0 0 0 0 0 0 0 0 0 127 0" result="hardAlpha"/>
<feOffset dx="2" dy="-2"/>
<feGaussianBlur stdDeviation="2"/>
<feComposite in2="hardAlpha" operator="arithmetic" k2="-1" k3="1"/>
<feColorMatrix type="matrix" values="0 0 0 0 1 0 0 0 0 1 0 0 0 0 1 0 0 0 1 0"/>
<feBlend mode="normal" in2="shape" result="effect2_innerShadow"/>
</filter>
<filter id="filter4_d" x="0" y="0" width="102" height="102" filterUnits="userSpaceOnUse" color-interpolation-filters="sRGB">
<feFlood flood-opacity="0" result="BackgroundImageFix"/>
<feColorMatrix in="SourceAlpha" type="matrix" values="0 0 0 0 0 0 0 0 0 0 0 0 0 0 0 0 0 0 127 0"/>
<feOffset dx="-17" dy="19"/>
<feGaussianBlur stdDeviation="16"/>
<feColorMatrix type="matrix" values="0 0 0 0 0.0291667 0 0 0 0 0.0291667 0 0 0 0 0.0291667 0 0 0 0.25 0"/>
<feBlend mode="normal" in2="BackgroundImageFix" result="effect1_dropShadow"/>
<feBlend mode="normal" in="SourceGraphic" in2="effect1_dropShadow" result="shape"/>
</filter>
<filter id="filter5_d" x="0" y="52" width="102" height="102" filterUnits="userSpaceOnUse" color-interpolation-filters="sRGB">
<feFlood flood-opacity="0" result="BackgroundImageFix"/>
<feColorMatrix in="SourceAlpha" type="matrix" values="0 0 0 0 0 0 0 0 0 0 0 0 0 0 0 0 0 0 127 0"/>
<feOffset dx="-17" dy="19"/>
<feGaussianBlur stdDeviation="16"/>
<feColorMatrix type="matrix" values="0 0 0 0 0.0291667 0 0 0 0 0.0291667 0 0 0 0 0.0291667 0 0 0 0.25 0"/>
<feBlend mode="normal" in2="BackgroundImageFix" result="effect1_dropShadow"/>
<feBlend mode="normal" in="SourceGraphic" in2="effect1_dropShadow" result="shape"/>
</filter>
<filter id="filter6_d" x="53" y="19" width="31" height="32" filterUnits="userSpaceOnUse" color-interpolation-filters="sRGB">
<feFlood flood-opacity="0" result="BackgroundImageFix"/>
<feColorMatrix in="SourceAlpha" type="matrix" values="0 0 0 0 0 0 0 0 0 0 0 0 0 0 0 0 0 0 127 0"/>
<feOffset dy="4"/>
<feGaussianBlur stdDeviation="2"/>
<feColorMatrix type="matrix" values="0 0 0 0 0 0 0 0 0 0 0 0 0 0 0 0 0 0 0.25 0"/>
<feBlend mode="normal" in2="BackgroundImageFix" result="effect1_dropShadow"/>
<feBlend mode="normal" in="SourceGraphic" in2="effect1_dropShadow" result="shape"/>
</filter>
</defs>
</svg>
